<!DOCTYPE svg PUBLIC "-//W3C//DTD SVG 1.1//EN" "http://www.w3.org/Graphics/SVG/1.1/DTD/svg11.dtd">
<!-- Uploaded to: SVG Repo, www.svgrepo.com, Transformed by: SVG Repo Mixer Tools -->
<svg fill="#000000" height="800px" width="800px" version="1.1" id="Capa_1" xmlns="http://www.w3.org/2000/svg" xmlns:xlink="http://www.w3.org/1999/xlink" viewBox="-41.82 -41.82 315.97 315.97" xml:space="preserve">
<g id="SVGRepo_bgCarrier" stroke-width="0"/>
<g id="SVGRepo_tracerCarrier" stroke-linecap="round" stroke-linejoin="round"/>
<g id="SVGRepo_iconCarrier"> <g> <path d="M225.638,76.975c-0.118-0.9-0.722-1.399-1.379-1.526c-0.032-1.046-0.717-2.072-2.076-2.094 c-25.002-0.402-50.033-1.123-75.04-1.179c1.886-8.998-6.914-20.113-9.16-29.798c5.771-11.979,9.35-37.666-7.991-41.818 c-18.211-4.36-39.889,17.763-48.355,31.267c-0.164,0.262-0.182,0.538-0.118,0.792c-5.221-2.208-11.638-1.408-16.38,1.766 C61.017,16.297,42.796,1.723,23.816,3.777C1.271,6.216,3.494,32.574,10.052,48.734c1.509,9.19-4.218,17.586-0.848,26.529 c2.422,6.429,7.808,9.48,14.485,9.593c4.443,0.075,8.944-0.896,13.32-2.588c-6.39,6.008-12.407,12.572-18.576,18.685 c-1.519,1.505,0.024,4.179,2.091,3.592c2.222-0.63,4.452-1.188,6.685-1.719c-0.502,6.433-1.014,13.7,0.503,19.685 c0.282,1.114,1.718,1.43,2.533,0.837c1.781,0.583,3.7,1.085,5.681,1.48c-0.125,2.286-0.189,4.579-0.281,6.869 c-0.141,0.271-0.146,0.565-0.035,0.85c-0.238,6.215-0.405,12.438-0.449,18.672c-0.025,0-0.05,0.001-0.075,0.001 c-1.259-0.001-1.256,1.922,0,1.953c0.025,0.001,0.05,0.002,0.075,0.003c-0.106,24.412,1.019,48.918,1.759,73.217 c0.055,1.794,1.832,2.458,3.121,1.993c58.103,2.85,116.578,1.902,174.759,3.943c1.233,0.043,1.923-0.715,2.134-1.623 c0.22-0.232,0.388-0.533,0.424-0.936c3.077-34.816,1.441-70.438,0.081-105.337c1.809,0.063,3.622,0.122,5.431,0.187 c1.376,0.049,2.073-0.947,2.134-2.01c0.368-0.242,0.651-0.632,0.69-1.209C226.67,106.937,227.533,91.378,225.638,76.975z M83.439,33.217c7.97-9.781,17.023-18.423,28.403-24.162c9.38-4.73,21.446-7.951,25.662,5.027 c2.904,8.942,0.331,18.909-3.217,27.194c-0.366,0.856-0.117,1.668,0.385,2.221c0.039,2.76,0.699,5.024,1.977,7.866 c1.114,2.478,3.057,4.63,4.026,7.148c2.878,7.469,1.645,19.546-8.135,21.172c-16.591,2.76-35.739-12.378-46.853-23.289 c0.279-0.305,0.593-0.562,0.847-0.901c4.519-6.036,4.53-15.81-1.503-20.815c-0.601-0.499-1.251-0.914-1.915-1.298 C83.224,33.321,83.347,33.331,83.439,33.217z M65.582,38.026c4.987-2.343,10.061-4.637,15.48-1.597 c6.13,3.439,6.48,12.614,1.931,17.602c-3.753,4.114-10.745,3.734-14.68,0.061C63.876,49.95,63.783,43.433,65.582,38.026z M29.537,80.195c-8.106,1.821-17.467-1.365-17.6-11.082c-0.045-3.355,1.87-6.778,2.23-10.056c0.297-2.693,0.196-4.893-0.28-7 c0.548-0.391,0.886-1.026,0.598-1.771C8.279,34.199,3.353,4.766,30.568,7.818c15.814,1.773,27.426,13.768,32.533,28.213 c-0.277,0.259-0.593,0.477-0.85,0.756c-0.599,0.652-0.39,1.389,0.118,1.821c-2.054,5.335-1.631,11.527,1.76,16.091 C53.846,65.355,44.878,76.748,29.537,80.195z M27.06,98.576c6.537-6.258,13.23-12.517,18.989-19.366 c0.511-0.608,0.573-1.257,0.396-1.812c8.28-5.357,15.457-12.896,19.913-20.316c0.195,0.165,0.351,0.356,0.557,0.513 c2.668,2.029,5.943,3.007,9.166,2.955c-7.112,20.064-13.392,41.543-17.542,62.572c-1.781-8.789-3.194-17.601-5.059-26.383 c-0.249-1.174-1.462-1.412-2.331-0.971C43.086,95.672,34.98,96.855,27.06,98.576z M94.802,118.158 c-10.387,0.419-20.778,1.752-31.203,2.236c4.383-14.761,8.228-29.933,11.66-45.012C81.31,89.729,87.729,104.205,94.802,118.158z M31.031,120.322c0.232-1.944,0.261-3.978,0.221-6.03c2.849,0.126,5.75,0.303,8.544,0.003c1.241-0.134,1.243-1.8,0-1.934 c-2.814-0.303-5.736-0.121-8.603,0.005c-0.102-2.044-0.292-4.081-0.511-6.094c3.044,0.172,6.056,0.482,9.109,0.713 c1.162,0.088,1.404-1.77,0.275-2.03c-3.088-0.712-6.409-0.834-9.623-0.708c-0.084-0.697-0.159-1.415-0.247-2.096 c6.654-1.482,13.349-2.693,20.061-4.021c-0.002,7.41,1.503,15.262,3.777,22.672c-3.587,0.153-7.1,0.972-10.726,0.98 C39.142,121.789,35.092,121.19,31.031,120.322z M41.326,225.145c-0.082-2.744-0.138-5.491-0.2-8.238 c1.853,0.076,3.715,0.118,5.53-0.133c0.471-0.065,0.471-0.886,0-0.951c-1.825-0.252-3.697-0.209-5.56-0.132 c-0.046-2.151-0.062-4.307-0.099-6.459c4.757,0.216,9.53,0.486,14.277,0.377c0.885-0.02,0.871-1.307,0-1.365 c-4.742-0.318-9.528-0.259-14.295-0.253c-0.05-3.044-0.079-6.091-0.119-9.137c2.339,0.063,4.683,0.158,7.011-0.063 c0.853-0.081,0.854-1.246,0-1.327c-2.335-0.222-4.684-0.126-7.03-0.063c-0.033-2.585-0.061-5.17-0.09-7.755 c3.489-0.176,6.963-0.231,10.48-0.174c0.942,0.015,0.879-1.309,0-1.422c-3.465-0.446-7.016-0.374-10.498,0.079 c-0.044-3.964-0.094-7.928-0.144-11.892c1.989,0.045,3.983,0.067,5.936-0.195c1.021-0.137,1.024-1.456,0-1.593 c-1.961-0.262-3.963-0.24-5.96-0.194c-0.045-3.423-0.139-6.842-0.2-10.264c3.489,0.232,6.999,0.098,10.437-0.541 c0.857-0.159,0.668-1.585-0.206-1.527c-3.432,0.226-6.839,0.399-10.261,0.471c-0.056-3.014-0.149-6.025-0.22-9.037 c2.37,0.088,4.743,0.138,7.084-0.038c1.253-0.095,1.233-1.81,0-1.934c-2.354-0.237-4.747-0.246-7.137-0.217 c-0.075-2.969-0.174-5.937-0.27-8.905c2.691,0.336,5.477,0.702,8.07,0.378c0.955-0.12,1.31-1.492,0.242-1.788 c-2.629-0.728-5.559-0.761-8.379-0.819c-0.079-2.271-0.205-4.537-0.302-6.806c2.673,0.08,5.381,0.139,7.968-0.36 c0.687-0.133,0.687-1.257,0-1.389c-2.618-0.506-5.359-0.439-8.061-0.358c-0.088-1.924-0.146-3.851-0.256-5.773 c5.467,0.711,11.184,0.452,15.918-1.583c0.49,1.441,1.032,2.827,1.566,4.22c-0.118,0.234-0.197,0.504-0.2,0.826 c-0.268,31.781,0.346,63.718,3.599,95.353C53.732,224.426,47.515,224.728,41.326,225.145z M62.498,224.028 c-0.955-30.829-2.3-61.586-2.43-92.436c0.095-0.141,0.191-0.281,0.252-0.471c0.842-2.619,1.625-5.291,2.429-7.943 c10.752,1.131,22.884,1.188,33.309-1.77c0.138-0.039,0.242-0.115,0.356-0.18c1.385,2.677,2.765,5.358,4.198,7.992 c0.654,31.383,2.316,62.753,2.891,94.16C89.793,223.32,76.108,223.493,62.498,224.028z M103.92,127.472 c-0.071-0.587-0.382-1.001-0.777-1.27c-7.82-18.778-17.276-37.351-26.91-55.226c0.796-3.571,1.614-7.155,2.368-10.698 c1.925-0.377,3.774-1.115,5.374-2.309c8.488,10.429,24.964,24.488,40.56,26.208c2.822,4.924,6.254,9.629,9.614,14.271 c-2.822-0.155-5.644-0.297-8.461-0.509c-3.153-0.238-6.338-0.729-9.485-0.479c-0.71-0.882-2.133-1.171-2.742,0.12 c-1.559,3.301-2.697,6.81-3.778,10.327c-0.582,0.068-0.739,0.797-0.368,1.183c-0.438,1.442-0.875,2.881-1.328,4.305 c-0.377,1.184-0.787,2.379-1.197,3.584c-0.305,0.3-0.428,0.73-0.383,1.16c-1.079,3.205-2.091,6.466-2.442,9.766 C103.949,127.76,103.937,127.615,103.92,127.472z M124.142,101.877c-2.76-0.147-5.544-0.15-8.313-0.047 c0.151-0.565,0.327-1.127,0.459-1.695C118.708,101,121.389,101.527,124.142,101.877z M106.195,223.406 c0.135-2.746,0.243-5.505,0.352-8.262c9.62,0.283,19.194,1.097,28.806,1.557c1.067,0.051,1.348-1.749,0.257-1.9 c-9.593-1.321-19.313-1.477-28.99-1.377c0.096-2.555,0.167-5.117,0.239-7.679c4.348,0.644,9.059,0.34,13.304-0.497 c1.077-0.212,0.85-2.039-0.262-1.937c-4.344,0.401-8.651,0.458-12.986,0.667c0.101-3.921,0.112-7.856,0.147-11.788 c10.511,0.373,21.167,0.752,31.666,0.349c1.382-0.053,1.376-2.071,0-2.143c-10.484-0.551-21.133-0.323-31.642-0.099 c0.025-4.093-0.014-8.19-0.066-12.285c3.613,0.081,7.243,0.226,10.846-0.009c0.95-0.062,0.952-1.417,0-1.479 c-3.606-0.235-7.239-0.089-10.854-0.009c-0.063-4.156-0.178-8.31-0.332-12.46c5.302,0.095,10.596,0.222,15.896-0.053 c1.122-0.058,1.124-1.686,0-1.744c-5.328-0.276-10.652-0.147-15.983-0.052c-0.134-3.305-0.36-6.595-0.558-9.891 c5.944,0.433,11.941,0.786,17.891,0.686c0.954-0.016,0.922-1.375,0-1.46c-5.952-0.547-11.985-0.646-17.971-0.658 c-0.208-3.318-0.444-6.63-0.714-9.936c2.995,0.362,5.894,0.288,8.808-0.531c0.847-0.238,0.468-1.395-0.353-1.28 c-2.858,0.401-5.713,0.591-8.589,0.3c-0.223-2.611-0.482-5.214-0.761-7.813c0.025,0.005,0.033,0.029,0.059,0.032 c4.706,0.508,9.405,1.051,14.131,1.342c1.047,0.065,0.985-1.462,0-1.593c-4.49-0.594-8.999-0.959-13.509-1.345 c0.157-0.056,0.322-0.102,0.43-0.259c2.076-3.034,3.295-6.627,4.441-10.19c34.373,2.472,68.895,3.493,103.344,4.679 c1.104,34.451-0.094,68.97,1.116,103.387C178.704,225.581,142.37,223.648,106.195,223.406z M110.876,116.636 c0.125-0.378,0.244-0.766,0.374-1.138c0.638-1.833,1.313-3.679,1.978-5.533c4.739,0.673,9.67,0.482,14.285-0.522 c0.905-0.197,0.723-1.722-0.222-1.639c-4.525,0.398-8.917,0.382-13.366,0.211c0.547-1.57,1.047-3.15,1.511-4.737 c3.272,0.134,6.581,0.145,9.833-0.074c0.718-0.048,0.776-0.901,0.248-1.174c4.414,0.467,8.938,0.545,12.841,0.812 c1.52,0.104,2.646-1.855,1.788-3.116c-0.645-0.947-1.293-1.927-1.935-2.889c6.003,0.402,12,0.872,18.006,1.216 c0.861,0.049,1.078-1.385,0.207-1.527c-6.384-1.041-12.902-1.416-19.386-1.439c-1.176-1.766-2.358-3.535-3.565-5.285 c7.17,0.243,14.251,1.039,21.416,1.507c1.014,0.066,1.253-1.591,0.242-1.788c-7.441-1.445-15.242-1.529-22.827-1.345 c-0.919-1.301-1.833-2.606-2.798-3.865c2.613-0.191,5.176-0.763,7.639-1.858c0.785-0.349,1.442-0.724,2.119-1.095 c7.214,0.27,14.466,0.523,21.67,0.274c1.178-0.041,1.163-1.742,0-1.82c-6.169-0.413-12.389-0.459-18.59-0.441 c1.583-1.257,2.756-2.596,3.555-4.01c25.322,2.097,50.891,2.545,76.286,2.318c0.052-0.001,0.087-0.025,0.137-0.029 c-1.191,13.906-0.349,28.513,0.229,42.484C185.365,118.654,148.096,116.801,110.876,116.636z"/> </g> </g>
</svg>