<!DOCTYPE svg PUBLIC "-//W3C//DTD SVG 1.1//EN" "http://www.w3.org/Graphics/SVG/1.1/DTD/svg11.dtd">
<!-- Uploaded to: SVG Repo, www.svgrepo.com, Transformed by: SVG Repo Mixer Tools -->
<svg height="800px" width="800px" version="1.1" id="Capa_1" xmlns="http://www.w3.org/2000/svg" xmlns:xlink="http://www.w3.org/1999/xlink" viewBox="-7.88 -7.88 59.53 59.53" xml:space="preserve" fill="#000000">
<g id="SVGRepo_bgCarrier" stroke-width="0"/>
<g id="SVGRepo_tracerCarrier" stroke-linecap="round" stroke-linejoin="round"/>
<g id="SVGRepo_iconCarrier"> <g> <path style="fill:#030104;" d="M43.486,9.644c0.022-0.391-0.212-0.798-0.717-0.798c-2.044,0-4.089,0-6.133,0 c0-1.844,0-3.688,0-5.532c0-0.409-0.342-0.75-0.75-0.75c-5.989,0-11.979,0-17.967,0c-3.315,0-6.63,0-9.945,0 c-0.409,0-0.75,0.341-0.75,0.75c0,1.844,0,3.688,0,5.532c-0.584,0-1.168,0-1.752,0c-1.491,0-2.982,0-4.473,0 c-0.292,0-0.486,0.144-0.601,0.335C0.165,9.369,0,9.646,0,9.955c0,5.787,0,11.575,0,17.362c0,4.296,0,8.592,0,12.889 c0,0.545,0.455,1,1,1c4.869,0,9.738,0,14.607,0c7.563,0,15.127,0,22.689,0c1.49,0,2.981,0,4.474,0c0.545,0,1-0.455,1-1 c0-5.831,0-11.661,0-17.492c0-4.131,0-8.263,0-12.394C43.77,10.06,43.657,9.824,43.486,9.644z M25.941,4.063 c3.064,0,6.13,0,9.195,0c0,1.577,0,3.155,0,4.732c-5.739,0-11.479,0-17.217,0c-3.065,0-6.13,0-9.195,0c0-1.577,0-3.155,0-4.732 C14.463,4.063,20.202,4.063,25.941,4.063z M28.163,39.208c-7.563,0-15.127,0-22.69,0c-1.157,0-2.315,0-3.473,0 C2,33.754,2,28.3,2,22.847c0-3.669,0-7.338,0-11.008c4.593,3.109,9.187,6.218,13.78,9.327c0.56,0.379,1.119,0.757,1.679,1.137 c0.422-0.447,1.152-0.8,2.053-1.023c-4.136-2.799-8.271-5.597-12.407-8.398c-1.249-0.845-2.498-1.691-3.748-2.537 c4.083,0,8.167,0,12.25,0c7.563,0,15.127,0,22.69,0c0.873,0,1.748,0,2.622,0c-4.688,3.091-9.375,6.181-14.062,9.272 c-0.885,0.583-1.77,1.167-2.654,1.75c0.879,0.246,1.591,0.607,2.052,1.039c3.848-2.537,7.695-5.074,11.544-7.611 c1.323-0.873,2.647-1.746,3.972-2.619c0,5.212,0,10.424,0,15.637c0,3.798,0,7.597,0,11.395 C37.234,39.208,32.699,39.208,28.163,39.208z M21.892,22.891c-0.793-0.537-1.587-1.074-2.38-1.611 c0.741-0.183,1.594-0.281,2.512-0.248c0.791,0.028,1.523,0.153,2.18,0.335C23.432,21.875,22.662,22.383,21.892,22.891z M26.817,26.336c-0.108,1.013-2.581,2.241-4.942,2.241c-2.201,0-4.718-1.342-4.828-2.194 C17.037,26.304,26.817,26.336,26.817,26.336z M17.046,23.19c0.012-0.319,0.159-0.619,0.413-0.888 c1.307,0.884,2.614,1.769,3.92,2.653c0.005,0.003,0.01,0.005,0.015,0.008c0.057,0.039,0.117,0.072,0.181,0.098 c0.002,0.001,0.004,0.002,0.007,0.003c0.042,0.017,0.085,0.028,0.129,0.037c0.281,0.067,0.542-0.016,0.742-0.188 c1.267-0.836,2.535-1.672,3.802-2.508c0.369,0.347,0.592,0.73,0.577,1.136c-0.045,1.289-2.273,2.256-4.976,2.159 C19.153,25.603,17,24.479,17.046,23.19z M22.452,24.914c-0.021,0.014-0.042,0.027-0.062,0.041c-0.238,0.156-0.47,0.189-0.679,0.146 c-0.043-0.011-0.085-0.02-0.129-0.037c-0.002-0.001-0.004-0.002-0.007-0.003c-0.06-0.024-0.12-0.058-0.181-0.098 c-0.523-0.363-0.718-1.271-0.013-1.736c0.17-0.112,0.34-0.225,0.511-0.337c0.166,0.112,0.332,0.225,0.497,0.337 C23.05,23.676,22.91,24.519,22.452,24.914z"/> </g> </g>
</svg>